<svg width="31" height="40" viewBox="0 0 31 40" fill="none" xmlns="http://www.w3.org/2000/svg">
<g filter="url(#filter0_d_168_1281)">
<path d="M25.4784 29.9437H24.9155C24.9155 29.9377 24.9128 29.9318 24.9116 29.9261L24.8962 29.8573C24.8863 29.812 24.8757 29.7671 24.8646 29.7226C24.8599 29.7016 24.8547 29.6806 24.8496 29.6597C24.835 29.6009 24.8196 29.5422 24.8038 29.4834L24.7991 29.4666C24.7817 29.4029 24.7635 29.3396 24.7446 29.2765L24.7256 29.2155C24.7126 29.172 24.6988 29.129 24.6862 29.086C24.6787 29.0624 24.6708 29.0392 24.6633 29.016C24.6495 28.9744 24.6352 28.9329 24.6206 28.8917C24.6131 28.87 24.6052 28.8479 24.5977 28.8266C24.5793 28.775 24.5604 28.7237 24.5409 28.6728C24.5366 28.6619 24.533 28.6515 24.5287 28.6406C24.5058 28.5807 24.4817 28.5212 24.4572 28.4617C24.4485 28.44 24.4395 28.4187 24.4304 28.3974C24.4138 28.3599 24.3972 28.3188 24.3802 28.2798L24.3483 28.2076C24.3317 28.1702 24.3147 28.1328 24.2973 28.0953C24.2867 28.0721 24.2756 28.0486 24.2646 28.0254C24.2444 27.9823 24.2251 27.9397 24.2026 27.8974C24.1943 27.8813 24.1868 27.8648 24.1785 27.8483C24.1505 27.7926 24.1217 27.7361 24.0925 27.6822L24.053 27.6122L23.9973 27.5108L23.9539 27.4359C23.9358 27.4045 23.9176 27.373 23.899 27.3416C23.8844 27.3162 23.8694 27.2907 23.8544 27.2668C23.8339 27.2327 23.815 27.1994 23.7925 27.1657L23.7356 27.0744C23.7088 27.0325 23.6819 26.9902 23.6543 26.9487C23.6369 26.9225 23.6196 26.8966 23.6018 26.8708C23.584 26.845 23.5647 26.8154 23.5457 26.7881C23.5268 26.7608 23.5063 26.7335 23.4889 26.7065C23.4715 26.6796 23.4526 26.6553 23.434 26.6317C23.4155 26.6081 23.3946 26.5767 23.3744 26.5493L23.3188 26.4745C23.2793 26.4247 23.243 26.3749 23.2043 26.3248L23.1502 26.2563C23.1273 26.2275 23.1036 26.199 23.0803 26.1706L23.0282 26.1077C23.0041 26.0789 22.9797 26.0505 22.9552 26.0217L22.9039 25.9625L22.8273 25.8757L22.7819 25.8256C22.6876 25.7219 22.5908 25.6197 22.4918 25.5202L22.4483 25.4764L22.3575 25.3877L22.3129 25.345C22.2814 25.3147 22.2498 25.2848 22.2178 25.2552L22.185 25.2253C22.0733 25.1224 21.9585 25.0221 21.8416 24.9259L21.8096 24.8993C21.7736 24.8694 21.7373 24.8398 21.7007 24.8106L21.6644 24.7814C21.6249 24.7515 21.589 24.7219 21.5507 24.6923L21.5313 24.6777C21.4022 24.5789 21.27 24.4828 21.1366 24.3903L21.118 24.3772C21.0758 24.3484 21.0336 24.32 20.9909 24.2919L20.9629 24.2736C20.9195 24.2447 20.8757 24.2167 20.8318 24.1886L20.8243 24.1841C20.6791 24.0921 20.531 24.0039 20.3802 23.9195L20.3743 23.9158C20.3266 23.8892 20.2788 23.8634 20.231 23.8376L20.2101 23.8263C19.9559 23.6904 19.6948 23.5656 19.4269 23.4521L19.4103 23.445C19.3397 23.415 19.2686 23.3862 19.1968 23.3578H20.6096C20.8397 23.3578 21.0265 23.1067 21.0265 22.7964C21.0265 22.4862 20.8397 22.2351 20.6096 22.2351H20.1888C20.2148 22.1722 20.2437 22.1011 20.2748 22.021C20.6728 21.786 21.373 21.2852 22.0678 20.3653L22.0733 20.3582C22.126 20.2894 22.1777 20.2181 22.2285 20.1445L22.2387 20.1299C22.2893 20.0577 22.3398 19.9832 22.3895 19.9054L22.4029 19.8848C22.4266 19.8474 22.4503 19.81 22.474 19.7725C22.474 19.7725 22.474 19.7695 22.4768 19.7677C22.5012 19.7302 22.5253 19.6891 22.5494 19.649L22.5648 19.6232C22.5853 19.5888 22.6062 19.5536 22.6264 19.5181C22.6303 19.5117 22.6343 19.5053 22.6378 19.4986C22.6611 19.4582 22.6844 19.417 22.7073 19.3755L22.7231 19.3466C22.742 19.3122 22.7606 19.2774 22.7791 19.2422C22.7847 19.2325 22.7902 19.2224 22.7953 19.2123C22.8174 19.17 22.8395 19.1273 22.8616 19.0839L22.877 19.0536C22.8944 19.0184 22.9122 18.9825 22.9295 18.9466L22.9485 18.9092C22.9698 18.865 22.9907 18.8201 23.0116 18.7748L23.0247 18.746C23.042 18.7086 23.059 18.6711 23.076 18.6337L23.0961 18.5888C23.1159 18.5435 23.1356 18.4979 23.1545 18.4518C23.1581 18.4436 23.1616 18.435 23.1648 18.4268C23.1826 18.3845 23.1999 18.3414 23.2173 18.298L23.237 18.2486C23.2532 18.2074 23.2694 18.1659 23.2852 18.1244L23.2971 18.0929C23.3156 18.0435 23.3338 17.993 23.3519 17.9432L23.3709 17.8901C23.3851 17.8504 23.3989 17.81 23.4127 17.7696C23.4178 17.7546 23.423 17.7396 23.4277 17.7247C23.4451 17.673 23.4625 17.6203 23.4794 17.5675C23.485 17.5492 23.4909 17.5301 23.4964 17.5128L23.5359 17.3897C23.541 17.3718 23.5465 17.3523 23.5517 17.3362C23.5678 17.2819 23.584 17.2266 23.5994 17.1708C23.6046 17.1532 23.6093 17.1352 23.614 17.1173C23.6259 17.0742 23.6377 17.0312 23.6492 16.9874C23.6543 16.9676 23.6594 16.9477 23.665 16.9279C23.6796 16.8703 23.6942 16.8123 23.7084 16.7535L23.7202 16.7045C23.7313 16.6577 23.7423 16.6105 23.753 16.563L23.7672 16.4994C23.7806 16.4384 23.794 16.3774 23.8067 16.3153C23.8094 16.3033 23.8118 16.2909 23.8142 16.2778C23.8252 16.2243 23.8359 16.1701 23.8461 16.1158C23.8505 16.0937 23.8544 16.0716 23.8588 16.0496C23.869 15.9938 23.8789 15.9373 23.8888 15.8815C23.8908 15.8695 23.8931 15.8579 23.8951 15.8463C23.9061 15.7805 23.9169 15.7141 23.9275 15.6472C23.931 15.6248 23.9346 15.6023 23.9377 15.5795C23.946 15.5252 23.9539 15.4706 23.9618 15.4152L23.9689 15.3643C23.9784 15.2955 23.9875 15.2262 23.9962 15.1559C23.9989 15.1338 24.0013 15.1117 24.004 15.0892C24.0109 15.0334 24.0172 14.9772 24.023 14.9208C24.0254 14.9006 24.0277 14.8808 24.0297 14.8606C24.0373 14.7882 24.0444 14.7153 24.051 14.6417C24.051 14.6211 24.0546 14.6005 24.0562 14.5795C24.0613 14.5204 24.0664 14.4609 24.0708 14.401C24.0708 14.3789 24.0743 14.3569 24.0759 14.3348C24.0814 14.2584 24.0866 14.1816 24.0913 14.1042C24.0913 14.0867 24.0913 14.0668 24.094 14.0511C24.0976 13.9867 24.1012 13.922 24.1039 13.8569C24.1039 13.8333 24.1039 13.8097 24.1071 13.7861C24.1102 13.7057 24.1134 13.6248 24.1158 13.5429C24.1158 13.5316 24.1158 13.52 24.1158 13.5084C24.1179 13.4356 24.1194 13.362 24.1205 13.2876C24.1205 13.2633 24.1205 13.239 24.1205 13.2147C24.1205 13.1348 24.1205 13.0545 24.1205 12.9737V12.9549C24.1205 12.8689 24.1205 12.7817 24.1205 12.693V12.6181C24.1205 12.5433 24.1173 12.4647 24.1154 12.3868V12.3445C24.1126 12.2547 24.1091 12.1638 24.1055 12.0725C24.1055 12.0489 24.1031 12.0249 24.1023 12.0014C24.0989 11.9245 24.095 11.8472 24.0905 11.7693C24.0905 11.7502 24.0905 11.7319 24.0873 11.7113C24.0818 11.6178 24.0758 11.5235 24.0692 11.4284L24.0644 11.3622C24.0585 11.2828 24.0526 11.2031 24.0459 11.1226C24.0459 11.0994 24.0423 11.0762 24.0404 11.053C24.0321 10.9557 24.023 10.8573 24.0135 10.7585C24.0135 10.7398 24.0096 10.7211 24.008 10.702C23.9997 10.6178 23.9906 10.5328 23.9815 10.4471C23.9788 10.4213 23.976 10.3959 23.9729 10.37C23.9618 10.2682 23.95 10.1661 23.9373 10.0624C23.9373 10.0497 23.9338 10.037 23.9322 10.025C23.9209 9.93217 23.9089 9.83886 23.8963 9.74505C23.8923 9.71736 23.8888 9.68966 23.8848 9.66197C23.8701 9.55568 23.855 9.44852 23.8394 9.34049C22.2604 -1.31572 11.0709 0.413656 11.0709 0.413656L11.4293 2.70328L4.66211 9.48083L4.95778 12.0979L7.52128 13.5949C7.63556 13.3195 7.78228 13.0573 7.95866 12.8131C9.61266 11.0044 12.8216 9.5845 13.7402 9.28997C13.9241 9.23121 14.0287 9.20165 14.0287 9.20165C9.63477 14.593 10.1345 20.7695 10.3303 22.2418C10.1266 22.2792 9.96912 22.5124 9.96912 22.7968C9.96912 23.1067 10.1558 23.3582 10.386 23.3582H11.7988C9.4491 24.2906 7.58396 26.0665 6.61059 28.2982C6.60945 28.3012 6.60813 28.3042 6.60665 28.3072C6.5348 28.4728 6.46796 28.6409 6.40611 28.8113C6.40622 28.813 6.40622 28.8148 6.40611 28.8165C6.38954 28.8629 6.37335 28.9093 6.35756 28.9561C6.35164 28.9729 6.34572 28.9898 6.34019 29.007C6.32598 29.0489 6.31282 29.0912 6.30071 29.1339C6.29361 29.1556 6.2869 29.1777 6.28019 29.1994C6.26756 29.2394 6.25532 29.2798 6.24348 29.3202L6.22216 29.3951C6.21111 29.4325 6.20006 29.4726 6.18979 29.5115C6.18229 29.5392 6.17519 29.5665 6.16808 29.5942C6.15861 29.6316 6.14874 29.669 6.13966 29.7065C6.13058 29.7439 6.12189 29.7813 6.11321 29.821C6.10452 29.8606 6.09347 29.9071 6.084 29.9505H5.52069C5.41237 29.9482 5.30466 29.9665 5.20389 30.0042C5.10312 30.0419 5.01131 30.0984 4.93386 30.1702C4.8564 30.242 4.79486 30.3278 4.75285 30.4225C4.71083 30.5172 4.68919 30.6189 4.68919 30.7216C4.68919 30.8243 4.71083 30.926 4.75285 31.0207C4.79486 31.1154 4.8564 31.2011 4.93386 31.273C5.01131 31.3448 5.10312 31.4012 5.20389 31.439C5.30466 31.4767 5.41237 31.495 5.52069 31.4927H25.4855C25.5939 31.495 25.7016 31.4767 25.8023 31.439C25.9031 31.4012 25.9949 31.3448 26.0724 31.273C26.1498 31.2011 26.2114 31.1154 26.2534 31.0207C26.2954 30.926 26.317 30.8243 26.317 30.7216C26.317 30.6189 26.2954 30.5172 26.2534 30.4225C26.2114 30.3278 26.1498 30.242 26.0724 30.1702C25.9949 30.0984 25.9031 30.0419 25.8023 30.0042C25.7016 29.9665 25.5939 29.9482 25.4855 29.9505L25.4784 29.9437Z" fill="#595653"/>
</g>
<defs>
<filter id="filter0_d_168_1281" x="0.662109" y="0.309814" width="29.655" height="39.1831" filterUnits="userSpaceOnUse" color-interpolation-filters="sRGB">
<feFlood flood-opacity="0" result="BackgroundImageFix"/>
<feColorMatrix in="SourceAlpha" type="matrix" values="0 0 0 0 0 0 0 0 0 0 0 0 0 0 0 0 0 0 127 0" result="hardAlpha"/>
<feOffset dy="4"/>
<feGaussianBlur stdDeviation="2"/>
<feComposite in2="hardAlpha" operator="out"/>
<feColorMatrix type="matrix" values="0 0 0 0 0 0 0 0 0 0 0 0 0 0 0 0 0 0 0.25 0"/>
<feBlend mode="normal" in2="BackgroundImageFix" result="effect1_dropShadow_168_1281"/>
<feBlend mode="normal" in="SourceGraphic" in2="effect1_dropShadow_168_1281" result="shape"/>
</filter>
</defs>
</svg>
